<?xml version="1.0" encoding="utf-8" standalone="no"?>
<!DOCTYPE svg PUBLIC "-//W3C//DTD SVG 1.1//EN"
  "http://www.w3.org/Graphics/SVG/1.1/DTD/svg11.dtd">
<svg xmlns:xlink="http://www.w3.org/1999/xlink" width="518.4pt" height="432pt" viewBox="0 0 518.4 432" xmlns="http://www.w3.org/2000/svg" version="1.1">
 <metadata>
  <rdf:RDF xmlns:dc="http://purl.org/dc/elements/1.1/" xmlns:cc="http://creativecommons.org/ns#" xmlns:rdf="http://www.w3.org/1999/02/22-rdf-syntax-ns#">
   <cc:Work>
    <dc:type rdf:resource="http://purl.org/dc/dcmitype/StillImage"/>
    <dc:date>2024-11-25T08:01:31.807445</dc:date>
    <dc:format>image/svg+xml</dc:format>
    <dc:creator>
     <cc:Agent>
      <dc:title>Matplotlib v3.6.2, https://matplotlib.org/</dc:title>
     </cc:Agent>
    </dc:creator>
   </cc:Work>
  </rdf:RDF>
 </metadata>
 <defs>
  <style type="text/css">*{stroke-linejoin: round; stroke-linecap: butt}</style>
 </defs>
 <g id="figure_1">
  <g id="patch_1">
   <path d="M 0 432 
L 518.4 432 
L 518.4 0 
L 0 0 
L 0 432 
z
" style="fill: none"/>
  </g>
  <g id="axes_1">
   <g id="patch_2">
    <path d="M 64.8 378 
L 466.56 378 
L 466.56 51.84 
L 64.8 51.84 
z
" style="fill: #ffffff"/>
   </g>
   <g id="PathCollection_1">
    <defs>
     <path id="mc8aa384eba" d="M 0 4.5 
C 1.193414 4.5 2.338109 4.025852 3.181981 3.181981 
C 4.025852 2.338109 4.5 1.193414 4.5 0 
C 4.5 -1.193414 4.025852 -2.338109 3.181981 -3.181981 
C 2.338109 -4.025852 1.193414 -4.5 0 -4.5 
C -1.193414 -4.5 -2.338109 -4.025852 -3.181981 -3.181981 
C -4.025852 -2.338109 -4.5 -1.193414 -4.5 0 
C -4.5 1.193414 -4.025852 2.338109 -3.181981 3.181981 
C -2.338109 4.025852 -1.193414 4.5 0 4.5 
z
" style="stroke: #1f77b4"/>
    </defs>
    <g clip-path="url(#pa4074d90fa)">
     <use xlink:href="#mc8aa384eba" x="275.156127" y="221.883635" style="fill: #1f77b4; stroke: #1f77b4"/>
     <use xlink:href="#mc8aa384eba" x="244.229442" y="216.684181" style="fill: #1f77b4; stroke: #1f77b4"/>
     <use xlink:href="#mc8aa384eba" x="244.682619" y="210.941384" style="fill: #1f77b4; stroke: #1f77b4"/>
     <use xlink:href="#mc8aa384eba" x="246.446865" y="212.731463" style="fill: #1f77b4; stroke: #1f77b4"/>
     <use xlink:href="#mc8aa384eba" x="246.43944" y="214.97233" style="fill: #1f77b4; stroke: #1f77b4"/>
     <use xlink:href="#mc8aa384eba" x="258.838863" y="214.113294" style="fill: #1f77b4; stroke: #1f77b4"/>
     <use xlink:href="#mc8aa384eba" x="241.63604" y="215.74715" style="fill: #1f77b4; stroke: #1f77b4"/>
     <use xlink:href="#mc8aa384eba" x="283.499009" y="214.687012" style="fill: #1f77b4; stroke: #1f77b4"/>
     <use xlink:href="#mc8aa384eba" x="270.143616" y="212.135945" style="fill: #1f77b4; stroke: #1f77b4"/>
     <use xlink:href="#mc8aa384eba" x="247.173154" y="213.639159" style="fill: #1f77b4; stroke: #1f77b4"/>
     <use xlink:href="#mc8aa384eba" x="240.775254" y="214.186183" style="fill: #1f77b4; stroke: #1f77b4"/>
     <use xlink:href="#mc8aa384eba" x="254.418489" y="218.302129" style="fill: #1f77b4; stroke: #1f77b4"/>
     <use xlink:href="#mc8aa384eba" x="245.78506" y="214.002483" style="fill: #1f77b4; stroke: #1f77b4"/>
     <use xlink:href="#mc8aa384eba" x="237.72628" y="214.696896" style="fill: #1f77b4; stroke: #1f77b4"/>
     <use xlink:href="#mc8aa384eba" x="286.778301" y="215.750254" style="fill: #1f77b4; stroke: #1f77b4"/>
     <use xlink:href="#mc8aa384eba" x="250.500133" y="215.495003" style="fill: #1f77b4; stroke: #1f77b4"/>
     <use xlink:href="#mc8aa384eba" x="237.077861" y="216.069349" style="fill: #1f77b4; stroke: #1f77b4"/>
     <use xlink:href="#mc8aa384eba" x="254.429928" y="209.510739" style="fill: #1f77b4; stroke: #1f77b4"/>
     <use xlink:href="#mc8aa384eba" x="249.184619" y="207.956365" style="fill: #1f77b4; stroke: #1f77b4"/>
     <use xlink:href="#mc8aa384eba" x="249.828955" y="213.883509" style="fill: #1f77b4; stroke: #1f77b4"/>
     <use xlink:href="#mc8aa384eba" x="251.453243" y="214.998028" style="fill: #1f77b4; stroke: #1f77b4"/>
     <use xlink:href="#mc8aa384eba" x="252.098647" y="213.88573" style="fill: #1f77b4; stroke: #1f77b4"/>
     <use xlink:href="#mc8aa384eba" x="272.245716" y="212.465712" style="fill: #1f77b4; stroke: #1f77b4"/>
     <use xlink:href="#mc8aa384eba" x="257.00991" y="215.192776" style="fill: #1f77b4; stroke: #1f77b4"/>
     <use xlink:href="#mc8aa384eba" x="244.553376" y="215.267424" style="fill: #1f77b4; stroke: #1f77b4"/>
     <use xlink:href="#mc8aa384eba" x="280.89391" y="213.927312" style="fill: #1f77b4; stroke: #1f77b4"/>
     <use xlink:href="#mc8aa384eba" x="260.933659" y="211.294761" style="fill: #1f77b4; stroke: #1f77b4"/>
     <use xlink:href="#mc8aa384eba" x="246.084909" y="213.915928" style="fill: #1f77b4; stroke: #1f77b4"/>
     <use xlink:href="#mc8aa384eba" x="253.227636" y="215.025851" style="fill: #1f77b4; stroke: #1f77b4"/>
     <use xlink:href="#mc8aa384eba" x="253.211665" y="211.992711" style="fill: #1f77b4; stroke: #1f77b4"/>
     <use xlink:href="#mc8aa384eba" x="259.53795" y="215.431909" style="fill: #1f77b4; stroke: #1f77b4"/>
     <use xlink:href="#mc8aa384eba" x="254.107149" y="214.7387" style="fill: #1f77b4; stroke: #1f77b4"/>
     <use xlink:href="#mc8aa384eba" x="271.503819" y="212.264722" style="fill: #1f77b4; stroke: #1f77b4"/>
     <use xlink:href="#mc8aa384eba" x="254.141208" y="215.845706" style="fill: #1f77b4; stroke: #1f77b4"/>
     <use xlink:href="#mc8aa384eba" x="244.438777" y="213.579284" style="fill: #1f77b4; stroke: #1f77b4"/>
     <use xlink:href="#mc8aa384eba" x="259.675806" y="212.934341" style="fill: #1f77b4; stroke: #1f77b4"/>
     <use xlink:href="#mc8aa384eba" x="246.929949" y="211.109423" style="fill: #1f77b4; stroke: #1f77b4"/>
     <use xlink:href="#mc8aa384eba" x="249.428306" y="214.048562" style="fill: #1f77b4; stroke: #1f77b4"/>
     <use xlink:href="#mc8aa384eba" x="252.52786" y="213.785627" style="fill: #1f77b4; stroke: #1f77b4"/>
     <use xlink:href="#mc8aa384eba" x="273.422374" y="211.726869" style="fill: #1f77b4; stroke: #1f77b4"/>
     <use xlink:href="#mc8aa384eba" x="255.997984" y="209.520853" style="fill: #1f77b4; stroke: #1f77b4"/>
     <use xlink:href="#mc8aa384eba" x="243.788876" y="213.376096" style="fill: #1f77b4; stroke: #1f77b4"/>
     <use xlink:href="#mc8aa384eba" x="237.783063" y="214.709118" style="fill: #1f77b4; stroke: #1f77b4"/>
     <use xlink:href="#mc8aa384eba" x="260.879219" y="214.134368" style="fill: #1f77b4; stroke: #1f77b4"/>
     <use xlink:href="#mc8aa384eba" x="273.789429" y="212.664011" style="fill: #1f77b4; stroke: #1f77b4"/>
     <use xlink:href="#mc8aa384eba" x="269.84008" y="214.62741" style="fill: #1f77b4; stroke: #1f77b4"/>
     <use xlink:href="#mc8aa384eba" x="252.922118" y="213.617678" style="fill: #1f77b4; stroke: #1f77b4"/>
     <use xlink:href="#mc8aa384eba" x="260.619217" y="208.480752" style="fill: #1f77b4; stroke: #1f77b4"/>
     <use xlink:href="#mc8aa384eba" x="257.912095" y="212.556358" style="fill: #1f77b4; stroke: #1f77b4"/>
     <use xlink:href="#mc8aa384eba" x="238.193791" y="214.776141" style="fill: #1f77b4; stroke: #1f77b4"/>
     <use xlink:href="#mc8aa384eba" x="264.777471" y="213.071389" style="fill: #1f77b4; stroke: #1f77b4"/>
     <use xlink:href="#mc8aa384eba" x="256.563073" y="212.446689" style="fill: #1f77b4; stroke: #1f77b4"/>
     <use xlink:href="#mc8aa384eba" x="286.854086" y="214.015854" style="fill: #1f77b4; stroke: #1f77b4"/>
     <use xlink:href="#mc8aa384eba" x="290.655277" y="212.236981" style="fill: #1f77b4; stroke: #1f77b4"/>
     <use xlink:href="#mc8aa384eba" x="294.282139" y="219.952705" style="fill: #1f77b4; stroke: #1f77b4"/>
     <use xlink:href="#mc8aa384eba" x="249.15988" y="214.42878" style="fill: #1f77b4; stroke: #1f77b4"/>
     <use xlink:href="#mc8aa384eba" x="260.170864" y="215.598423" style="fill: #1f77b4; stroke: #1f77b4"/>
     <use xlink:href="#mc8aa384eba" x="250.722113" y="211.611433" style="fill: #1f77b4; stroke: #1f77b4"/>
     <use xlink:href="#mc8aa384eba" x="238.985563" y="214.669227" style="fill: #1f77b4; stroke: #1f77b4"/>
     <use xlink:href="#mc8aa384eba" x="237.763734" y="213.694056" style="fill: #1f77b4; stroke: #1f77b4"/>
     <use xlink:href="#mc8aa384eba" x="256.494058" y="212.820013" style="fill: #1f77b4; stroke: #1f77b4"/>
     <use xlink:href="#mc8aa384eba" x="276.271729" y="210.95412" style="fill: #1f77b4; stroke: #1f77b4"/>
    </g>
   </g>
   <g id="matplotlib.axis_1">
    <g id="xtick_1">
     <g id="line2d_1">
      <defs>
       <path id="me4b1cebf15" d="M 0 0 
L 0 3.5 
" style="stroke: #000000; stroke-width: 0.8"/>
      </defs>
      <g>
       <use xlink:href="#me4b1cebf15" x="149.300568" y="378" style="stroke: #000000; stroke-width: 0.8"/>
      </g>
     </g>
     <g id="text_1">
      <!-- −0.005 -->
      <g transform="translate(115.993537 398.677188) scale(0.18 -0.18)">
       <defs>
        <path id="DejaVuSans-2212" d="M 678 2272 
L 4684 2272 
L 4684 1741 
L 678 1741 
L 678 2272 
z
" transform="scale(0.015625)"/>
        <path id="DejaVuSans-30" d="M 2034 4250 
Q 1547 4250 1301 3770 
Q 1056 3291 1056 2328 
Q 1056 1369 1301 889 
Q 1547 409 2034 409 
Q 2525 409 2770 889 
Q 3016 1369 3016 2328 
Q 3016 3291 2770 3770 
Q 2525 4250 2034 4250 
z
M 2034 4750 
Q 2819 4750 3233 4129 
Q 3647 3509 3647 2328 
Q 3647 1150 3233 529 
Q 2819 -91 2034 -91 
Q 1250 -91 836 529 
Q 422 1150 422 2328 
Q 422 3509 836 4129 
Q 1250 4750 2034 4750 
z
" transform="scale(0.015625)"/>
        <path id="DejaVuSans-2e" d="M 684 794 
L 1344 794 
L 1344 0 
L 684 0 
L 684 794 
z
" transform="scale(0.015625)"/>
        <path id="DejaVuSans-35" d="M 691 4666 
L 3169 4666 
L 3169 4134 
L 1269 4134 
L 1269 2991 
Q 1406 3038 1543 3061 
Q 1681 3084 1819 3084 
Q 2600 3084 3056 2656 
Q 3513 2228 3513 1497 
Q 3513 744 3044 326 
Q 2575 -91 1722 -91 
Q 1428 -91 1123 -41 
Q 819 9 494 109 
L 494 744 
Q 775 591 1075 516 
Q 1375 441 1709 441 
Q 2250 441 2565 725 
Q 2881 1009 2881 1497 
Q 2881 1984 2565 2268 
Q 2250 2553 1709 2553 
Q 1456 2553 1204 2497 
Q 953 2441 691 2322 
L 691 4666 
z
" transform="scale(0.015625)"/>
       </defs>
       <use xlink:href="#DejaVuSans-2212"/>
       <use xlink:href="#DejaVuSans-30" x="83.789062"/>
       <use xlink:href="#DejaVuSans-2e" x="147.412109"/>
       <use xlink:href="#DejaVuSans-30" x="179.199219"/>
       <use xlink:href="#DejaVuSans-30" x="242.822266"/>
       <use xlink:href="#DejaVuSans-35" x="306.445312"/>
      </g>
     </g>
    </g>
    <g id="xtick_2">
     <g id="line2d_2">
      <g>
       <use xlink:href="#me4b1cebf15" x="235.439499" y="378" style="stroke: #000000; stroke-width: 0.8"/>
      </g>
     </g>
     <g id="text_2">
      <!-- 0.000 -->
      <g transform="translate(209.674186 398.677188) scale(0.18 -0.18)">
       <use xlink:href="#DejaVuSans-30"/>
       <use xlink:href="#DejaVuSans-2e" x="63.623047"/>
       <use xlink:href="#DejaVuSans-30" x="95.410156"/>
       <use xlink:href="#DejaVuSans-30" x="159.033203"/>
       <use xlink:href="#DejaVuSans-30" x="222.65625"/>
      </g>
     </g>
    </g>
    <g id="xtick_3">
     <g id="line2d_3">
      <g>
       <use xlink:href="#me4b1cebf15" x="321.578429" y="378" style="stroke: #000000; stroke-width: 0.8"/>
      </g>
     </g>
     <g id="text_3">
      <!-- 0.005 -->
      <g transform="translate(295.813117 398.677188) scale(0.18 -0.18)">
       <use xlink:href="#DejaVuSans-30"/>
       <use xlink:href="#DejaVuSans-2e" x="63.623047"/>
       <use xlink:href="#DejaVuSans-30" x="95.410156"/>
       <use xlink:href="#DejaVuSans-30" x="159.033203"/>
       <use xlink:href="#DejaVuSans-35" x="222.65625"/>
      </g>
     </g>
    </g>
    <g id="xtick_4">
     <g id="line2d_4">
      <g>
       <use xlink:href="#me4b1cebf15" x="407.71736" y="378" style="stroke: #000000; stroke-width: 0.8"/>
      </g>
     </g>
     <g id="text_4">
      <!-- 0.010 -->
      <g transform="translate(381.952047 398.677188) scale(0.18 -0.18)">
       <defs>
        <path id="DejaVuSans-31" d="M 794 531 
L 1825 531 
L 1825 4091 
L 703 3866 
L 703 4441 
L 1819 4666 
L 2450 4666 
L 2450 531 
L 3481 531 
L 3481 0 
L 794 0 
L 794 531 
z
" transform="scale(0.015625)"/>
       </defs>
       <use xlink:href="#DejaVuSans-30"/>
       <use xlink:href="#DejaVuSans-2e" x="63.623047"/>
       <use xlink:href="#DejaVuSans-30" x="95.410156"/>
       <use xlink:href="#DejaVuSans-31" x="159.033203"/>
       <use xlink:href="#DejaVuSans-30" x="222.65625"/>
      </g>
     </g>
    </g>
    <g id="text_5">
     <!-- True variability of Biomass -->
     <g transform="translate(146.844844 420.097812) scale(0.18 -0.18)">
      <defs>
       <path id="DejaVuSans-54" d="M -19 4666 
L 3928 4666 
L 3928 4134 
L 2272 4134 
L 2272 0 
L 1638 0 
L 1638 4134 
L -19 4134 
L -19 4666 
z
" transform="scale(0.015625)"/>
       <path id="DejaVuSans-72" d="M 2631 2963 
Q 2534 3019 2420 3045 
Q 2306 3072 2169 3072 
Q 1681 3072 1420 2755 
Q 1159 2438 1159 1844 
L 1159 0 
L 581 0 
L 581 3500 
L 1159 3500 
L 1159 2956 
Q 1341 3275 1631 3429 
Q 1922 3584 2338 3584 
Q 2397 3584 2469 3576 
Q 2541 3569 2628 3553 
L 2631 2963 
z
" transform="scale(0.015625)"/>
       <path id="DejaVuSans-75" d="M 544 1381 
L 544 3500 
L 1119 3500 
L 1119 1403 
Q 1119 906 1312 657 
Q 1506 409 1894 409 
Q 2359 409 2629 706 
Q 2900 1003 2900 1516 
L 2900 3500 
L 3475 3500 
L 3475 0 
L 2900 0 
L 2900 538 
Q 2691 219 2414 64 
Q 2138 -91 1772 -91 
Q 1169 -91 856 284 
Q 544 659 544 1381 
z
M 1991 3584 
L 1991 3584 
z
" transform="scale(0.015625)"/>
       <path id="DejaVuSans-65" d="M 3597 1894 
L 3597 1613 
L 953 1613 
Q 991 1019 1311 708 
Q 1631 397 2203 397 
Q 2534 397 2845 478 
Q 3156 559 3463 722 
L 3463 178 
Q 3153 47 2828 -22 
Q 2503 -91 2169 -91 
Q 1331 -91 842 396 
Q 353 884 353 1716 
Q 353 2575 817 3079 
Q 1281 3584 2069 3584 
Q 2775 3584 3186 3129 
Q 3597 2675 3597 1894 
z
M 3022 2063 
Q 3016 2534 2758 2815 
Q 2500 3097 2075 3097 
Q 1594 3097 1305 2825 
Q 1016 2553 972 2059 
L 3022 2063 
z
" transform="scale(0.015625)"/>
       <path id="DejaVuSans-20" transform="scale(0.015625)"/>
       <path id="DejaVuSans-76" d="M 191 3500 
L 800 3500 
L 1894 563 
L 2988 3500 
L 3597 3500 
L 2284 0 
L 1503 0 
L 191 3500 
z
" transform="scale(0.015625)"/>
       <path id="DejaVuSans-61" d="M 2194 1759 
Q 1497 1759 1228 1600 
Q 959 1441 959 1056 
Q 959 750 1161 570 
Q 1363 391 1709 391 
Q 2188 391 2477 730 
Q 2766 1069 2766 1631 
L 2766 1759 
L 2194 1759 
z
M 3341 1997 
L 3341 0 
L 2766 0 
L 2766 531 
Q 2569 213 2275 61 
Q 1981 -91 1556 -91 
Q 1019 -91 701 211 
Q 384 513 384 1019 
Q 384 1609 779 1909 
Q 1175 2209 1959 2209 
L 2766 2209 
L 2766 2266 
Q 2766 2663 2505 2880 
Q 2244 3097 1772 3097 
Q 1472 3097 1187 3025 
Q 903 2953 641 2809 
L 641 3341 
Q 956 3463 1253 3523 
Q 1550 3584 1831 3584 
Q 2591 3584 2966 3190 
Q 3341 2797 3341 1997 
z
" transform="scale(0.015625)"/>
       <path id="DejaVuSans-69" d="M 603 3500 
L 1178 3500 
L 1178 0 
L 603 0 
L 603 3500 
z
M 603 4863 
L 1178 4863 
L 1178 4134 
L 603 4134 
L 603 4863 
z
" transform="scale(0.015625)"/>
       <path id="DejaVuSans-62" d="M 3116 1747 
Q 3116 2381 2855 2742 
Q 2594 3103 2138 3103 
Q 1681 3103 1420 2742 
Q 1159 2381 1159 1747 
Q 1159 1113 1420 752 
Q 1681 391 2138 391 
Q 2594 391 2855 752 
Q 3116 1113 3116 1747 
z
M 1159 2969 
Q 1341 3281 1617 3432 
Q 1894 3584 2278 3584 
Q 2916 3584 3314 3078 
Q 3713 2572 3713 1747 
Q 3713 922 3314 415 
Q 2916 -91 2278 -91 
Q 1894 -91 1617 61 
Q 1341 213 1159 525 
L 1159 0 
L 581 0 
L 581 4863 
L 1159 4863 
L 1159 2969 
z
" transform="scale(0.015625)"/>
       <path id="DejaVuSans-6c" d="M 603 4863 
L 1178 4863 
L 1178 0 
L 603 0 
L 603 4863 
z
" transform="scale(0.015625)"/>
       <path id="DejaVuSans-74" d="M 1172 4494 
L 1172 3500 
L 2356 3500 
L 2356 3053 
L 1172 3053 
L 1172 1153 
Q 1172 725 1289 603 
Q 1406 481 1766 481 
L 2356 481 
L 2356 0 
L 1766 0 
Q 1100 0 847 248 
Q 594 497 594 1153 
L 594 3053 
L 172 3053 
L 172 3500 
L 594 3500 
L 594 4494 
L 1172 4494 
z
" transform="scale(0.015625)"/>
       <path id="DejaVuSans-79" d="M 2059 -325 
Q 1816 -950 1584 -1140 
Q 1353 -1331 966 -1331 
L 506 -1331 
L 506 -850 
L 844 -850 
Q 1081 -850 1212 -737 
Q 1344 -625 1503 -206 
L 1606 56 
L 191 3500 
L 800 3500 
L 1894 763 
L 2988 3500 
L 3597 3500 
L 2059 -325 
z
" transform="scale(0.015625)"/>
       <path id="DejaVuSans-6f" d="M 1959 3097 
Q 1497 3097 1228 2736 
Q 959 2375 959 1747 
Q 959 1119 1226 758 
Q 1494 397 1959 397 
Q 2419 397 2687 759 
Q 2956 1122 2956 1747 
Q 2956 2369 2687 2733 
Q 2419 3097 1959 3097 
z
M 1959 3584 
Q 2709 3584 3137 3096 
Q 3566 2609 3566 1747 
Q 3566 888 3137 398 
Q 2709 -91 1959 -91 
Q 1206 -91 779 398 
Q 353 888 353 1747 
Q 353 2609 779 3096 
Q 1206 3584 1959 3584 
z
" transform="scale(0.015625)"/>
       <path id="DejaVuSans-66" d="M 2375 4863 
L 2375 4384 
L 1825 4384 
Q 1516 4384 1395 4259 
Q 1275 4134 1275 3809 
L 1275 3500 
L 2222 3500 
L 2222 3053 
L 1275 3053 
L 1275 0 
L 697 0 
L 697 3053 
L 147 3053 
L 147 3500 
L 697 3500 
L 697 3744 
Q 697 4328 969 4595 
Q 1241 4863 1831 4863 
L 2375 4863 
z
" transform="scale(0.015625)"/>
       <path id="DejaVuSans-42" d="M 1259 2228 
L 1259 519 
L 2272 519 
Q 2781 519 3026 730 
Q 3272 941 3272 1375 
Q 3272 1813 3026 2020 
Q 2781 2228 2272 2228 
L 1259 2228 
z
M 1259 4147 
L 1259 2741 
L 2194 2741 
Q 2656 2741 2882 2914 
Q 3109 3088 3109 3444 
Q 3109 3797 2882 3972 
Q 2656 4147 2194 4147 
L 1259 4147 
z
M 628 4666 
L 2241 4666 
Q 2963 4666 3353 4366 
Q 3744 4066 3744 3513 
Q 3744 3084 3544 2831 
Q 3344 2578 2956 2516 
Q 3422 2416 3680 2098 
Q 3938 1781 3938 1306 
Q 3938 681 3513 340 
Q 3088 0 2303 0 
L 628 0 
L 628 4666 
z
" transform="scale(0.015625)"/>
       <path id="DejaVuSans-6d" d="M 3328 2828 
Q 3544 3216 3844 3400 
Q 4144 3584 4550 3584 
Q 5097 3584 5394 3201 
Q 5691 2819 5691 2113 
L 5691 0 
L 5113 0 
L 5113 2094 
Q 5113 2597 4934 2840 
Q 4756 3084 4391 3084 
Q 3944 3084 3684 2787 
Q 3425 2491 3425 1978 
L 3425 0 
L 2847 0 
L 2847 2094 
Q 2847 2600 2669 2842 
Q 2491 3084 2119 3084 
Q 1678 3084 1418 2786 
Q 1159 2488 1159 1978 
L 1159 0 
L 581 0 
L 581 3500 
L 1159 3500 
L 1159 2956 
Q 1356 3278 1631 3431 
Q 1906 3584 2284 3584 
Q 2666 3584 2933 3390 
Q 3200 3197 3328 2828 
z
" transform="scale(0.015625)"/>
       <path id="DejaVuSans-73" d="M 2834 3397 
L 2834 2853 
Q 2591 2978 2328 3040 
Q 2066 3103 1784 3103 
Q 1356 3103 1142 2972 
Q 928 2841 928 2578 
Q 928 2378 1081 2264 
Q 1234 2150 1697 2047 
L 1894 2003 
Q 2506 1872 2764 1633 
Q 3022 1394 3022 966 
Q 3022 478 2636 193 
Q 2250 -91 1575 -91 
Q 1294 -91 989 -36 
Q 684 19 347 128 
L 347 722 
Q 666 556 975 473 
Q 1284 391 1588 391 
Q 1994 391 2212 530 
Q 2431 669 2431 922 
Q 2431 1156 2273 1281 
Q 2116 1406 1581 1522 
L 1381 1569 
Q 847 1681 609 1914 
Q 372 2147 372 2553 
Q 372 3047 722 3315 
Q 1072 3584 1716 3584 
Q 2034 3584 2315 3537 
Q 2597 3491 2834 3397 
z
" transform="scale(0.015625)"/>
      </defs>
      <use xlink:href="#DejaVuSans-54"/>
      <use xlink:href="#DejaVuSans-72" x="46.333984"/>
      <use xlink:href="#DejaVuSans-75" x="87.447266"/>
      <use xlink:href="#DejaVuSans-65" x="150.826172"/>
      <use xlink:href="#DejaVuSans-20" x="212.349609"/>
      <use xlink:href="#DejaVuSans-76" x="244.136719"/>
      <use xlink:href="#DejaVuSans-61" x="303.316406"/>
      <use xlink:href="#DejaVuSans-72" x="364.595703"/>
      <use xlink:href="#DejaVuSans-69" x="405.708984"/>
      <use xlink:href="#DejaVuSans-61" x="433.492188"/>
      <use xlink:href="#DejaVuSans-62" x="494.771484"/>
      <use xlink:href="#DejaVuSans-69" x="558.248047"/>
      <use xlink:href="#DejaVuSans-6c" x="586.03125"/>
      <use xlink:href="#DejaVuSans-69" x="613.814453"/>
      <use xlink:href="#DejaVuSans-74" x="641.597656"/>
      <use xlink:href="#DejaVuSans-79" x="680.806641"/>
      <use xlink:href="#DejaVuSans-20" x="739.986328"/>
      <use xlink:href="#DejaVuSans-6f" x="771.773438"/>
      <use xlink:href="#DejaVuSans-66" x="832.955078"/>
      <use xlink:href="#DejaVuSans-20" x="868.160156"/>
      <use xlink:href="#DejaVuSans-42" x="899.947266"/>
      <use xlink:href="#DejaVuSans-69" x="968.550781"/>
      <use xlink:href="#DejaVuSans-6f" x="996.333984"/>
      <use xlink:href="#DejaVuSans-6d" x="1057.515625"/>
      <use xlink:href="#DejaVuSans-61" x="1154.927734"/>
      <use xlink:href="#DejaVuSans-73" x="1216.207031"/>
      <use xlink:href="#DejaVuSans-73" x="1268.306641"/>
     </g>
    </g>
   </g>
   <g id="matplotlib.axis_2">
    <g id="ytick_1">
     <g id="line2d_5">
      <defs>
       <path id="m931c5c8db5" d="M 0 0 
L -3.5 0 
" style="stroke: #000000; stroke-width: 0.8"/>
      </defs>
      <g>
       <use xlink:href="#m931c5c8db5" x="64.8" y="349.939065" style="stroke: #000000; stroke-width: 0.8"/>
      </g>
     </g>
     <g id="text_6">
      <!-- −0.0075 -->
      <g transform="translate(-20.266563 356.777658) scale(0.18 -0.18)">
       <defs>
        <path id="DejaVuSans-37" d="M 525 4666 
L 3525 4666 
L 3525 4397 
L 1831 0 
L 1172 0 
L 2766 4134 
L 525 4134 
L 525 4666 
z
" transform="scale(0.015625)"/>
       </defs>
       <use xlink:href="#DejaVuSans-2212"/>
       <use xlink:href="#DejaVuSans-30" x="83.789062"/>
       <use xlink:href="#DejaVuSans-2e" x="147.412109"/>
       <use xlink:href="#DejaVuSans-30" x="179.199219"/>
       <use xlink:href="#DejaVuSans-30" x="242.822266"/>
       <use xlink:href="#DejaVuSans-37" x="306.445312"/>
       <use xlink:href="#DejaVuSans-35" x="370.068359"/>
      </g>
     </g>
    </g>
    <g id="ytick_2">
     <g id="line2d_6">
      <g>
       <use xlink:href="#m931c5c8db5" x="64.8" y="310.909973" style="stroke: #000000; stroke-width: 0.8"/>
      </g>
     </g>
     <g id="text_7">
      <!-- −0.0050 -->
      <g transform="translate(-20.266563 317.748567) scale(0.18 -0.18)">
       <use xlink:href="#DejaVuSans-2212"/>
       <use xlink:href="#DejaVuSans-30" x="83.789062"/>
       <use xlink:href="#DejaVuSans-2e" x="147.412109"/>
       <use xlink:href="#DejaVuSans-30" x="179.199219"/>
       <use xlink:href="#DejaVuSans-30" x="242.822266"/>
       <use xlink:href="#DejaVuSans-35" x="306.445312"/>
       <use xlink:href="#DejaVuSans-30" x="370.068359"/>
      </g>
     </g>
    </g>
    <g id="ytick_3">
     <g id="line2d_7">
      <g>
       <use xlink:href="#m931c5c8db5" x="64.8" y="271.880882" style="stroke: #000000; stroke-width: 0.8"/>
      </g>
     </g>
     <g id="text_8">
      <!-- −0.0025 -->
      <g transform="translate(-20.266563 278.719476) scale(0.18 -0.18)">
       <defs>
        <path id="DejaVuSans-32" d="M 1228 531 
L 3431 531 
L 3431 0 
L 469 0 
L 469 531 
Q 828 903 1448 1529 
Q 2069 2156 2228 2338 
Q 2531 2678 2651 2914 
Q 2772 3150 2772 3378 
Q 2772 3750 2511 3984 
Q 2250 4219 1831 4219 
Q 1534 4219 1204 4116 
Q 875 4013 500 3803 
L 500 4441 
Q 881 4594 1212 4672 
Q 1544 4750 1819 4750 
Q 2544 4750 2975 4387 
Q 3406 4025 3406 3419 
Q 3406 3131 3298 2873 
Q 3191 2616 2906 2266 
Q 2828 2175 2409 1742 
Q 1991 1309 1228 531 
z
" transform="scale(0.015625)"/>
       </defs>
       <use xlink:href="#DejaVuSans-2212"/>
       <use xlink:href="#DejaVuSans-30" x="83.789062"/>
       <use xlink:href="#DejaVuSans-2e" x="147.412109"/>
       <use xlink:href="#DejaVuSans-30" x="179.199219"/>
       <use xlink:href="#DejaVuSans-30" x="242.822266"/>
       <use xlink:href="#DejaVuSans-32" x="306.445312"/>
       <use xlink:href="#DejaVuSans-35" x="370.068359"/>
      </g>
     </g>
    </g>
    <g id="ytick_4">
     <g id="line2d_8">
      <g>
       <use xlink:href="#m931c5c8db5" x="64.8" y="232.851791" style="stroke: #000000; stroke-width: 0.8"/>
      </g>
     </g>
     <g id="text_9">
      <!-- 0.0000 -->
      <g transform="translate(-5.183125 239.690385) scale(0.18 -0.18)">
       <use xlink:href="#DejaVuSans-30"/>
       <use xlink:href="#DejaVuSans-2e" x="63.623047"/>
       <use xlink:href="#DejaVuSans-30" x="95.410156"/>
       <use xlink:href="#DejaVuSans-30" x="159.033203"/>
       <use xlink:href="#DejaVuSans-30" x="222.65625"/>
       <use xlink:href="#DejaVuSans-30" x="286.279297"/>
      </g>
     </g>
    </g>
    <g id="ytick_5">
     <g id="line2d_9">
      <g>
       <use xlink:href="#m931c5c8db5" x="64.8" y="193.8227" style="stroke: #000000; stroke-width: 0.8"/>
      </g>
     </g>
     <g id="text_10">
      <!-- 0.0025 -->
      <g transform="translate(-5.183125 200.661294) scale(0.18 -0.18)">
       <use xlink:href="#DejaVuSans-30"/>
       <use xlink:href="#DejaVuSans-2e" x="63.623047"/>
       <use xlink:href="#DejaVuSans-30" x="95.410156"/>
       <use xlink:href="#DejaVuSans-30" x="159.033203"/>
       <use xlink:href="#DejaVuSans-32" x="222.65625"/>
       <use xlink:href="#DejaVuSans-35" x="286.279297"/>
      </g>
     </g>
    </g>
    <g id="ytick_6">
     <g id="line2d_10">
      <g>
       <use xlink:href="#m931c5c8db5" x="64.8" y="154.793609" style="stroke: #000000; stroke-width: 0.8"/>
      </g>
     </g>
     <g id="text_11">
      <!-- 0.0050 -->
      <g transform="translate(-5.183125 161.632202) scale(0.18 -0.18)">
       <use xlink:href="#DejaVuSans-30"/>
       <use xlink:href="#DejaVuSans-2e" x="63.623047"/>
       <use xlink:href="#DejaVuSans-30" x="95.410156"/>
       <use xlink:href="#DejaVuSans-30" x="159.033203"/>
       <use xlink:href="#DejaVuSans-35" x="222.65625"/>
       <use xlink:href="#DejaVuSans-30" x="286.279297"/>
      </g>
     </g>
    </g>
    <g id="ytick_7">
     <g id="line2d_11">
      <g>
       <use xlink:href="#m931c5c8db5" x="64.8" y="115.764517" style="stroke: #000000; stroke-width: 0.8"/>
      </g>
     </g>
     <g id="text_12">
      <!-- 0.0075 -->
      <g transform="translate(-5.183125 122.603111) scale(0.18 -0.18)">
       <use xlink:href="#DejaVuSans-30"/>
       <use xlink:href="#DejaVuSans-2e" x="63.623047"/>
       <use xlink:href="#DejaVuSans-30" x="95.410156"/>
       <use xlink:href="#DejaVuSans-30" x="159.033203"/>
       <use xlink:href="#DejaVuSans-37" x="222.65625"/>
       <use xlink:href="#DejaVuSans-35" x="286.279297"/>
      </g>
     </g>
    </g>
    <g id="ytick_8">
     <g id="line2d_12">
      <g>
       <use xlink:href="#m931c5c8db5" x="64.8" y="76.735426" style="stroke: #000000; stroke-width: 0.8"/>
      </g>
     </g>
     <g id="text_13">
      <!-- 0.0100 -->
      <g transform="translate(-5.183125 83.57402) scale(0.18 -0.18)">
       <use xlink:href="#DejaVuSans-30"/>
       <use xlink:href="#DejaVuSans-2e" x="63.623047"/>
       <use xlink:href="#DejaVuSans-30" x="95.410156"/>
       <use xlink:href="#DejaVuSans-31" x="159.033203"/>
       <use xlink:href="#DejaVuSans-30" x="222.65625"/>
       <use xlink:href="#DejaVuSans-30" x="286.279297"/>
      </g>
     </g>
    </g>
    <g id="text_14">
     <!-- Predicted variability of Biomass -->
     <g transform="translate(-28.01 356.890781) rotate(-90) scale(0.18 -0.18)">
      <defs>
       <path id="DejaVuSans-50" d="M 1259 4147 
L 1259 2394 
L 2053 2394 
Q 2494 2394 2734 2622 
Q 2975 2850 2975 3272 
Q 2975 3691 2734 3919 
Q 2494 4147 2053 4147 
L 1259 4147 
z
M 628 4666 
L 2053 4666 
Q 2838 4666 3239 4311 
Q 3641 3956 3641 3272 
Q 3641 2581 3239 2228 
Q 2838 1875 2053 1875 
L 1259 1875 
L 1259 0 
L 628 0 
L 628 4666 
z
" transform="scale(0.015625)"/>
       <path id="DejaVuSans-64" d="M 2906 2969 
L 2906 4863 
L 3481 4863 
L 3481 0 
L 2906 0 
L 2906 525 
Q 2725 213 2448 61 
Q 2172 -91 1784 -91 
Q 1150 -91 751 415 
Q 353 922 353 1747 
Q 353 2572 751 3078 
Q 1150 3584 1784 3584 
Q 2172 3584 2448 3432 
Q 2725 3281 2906 2969 
z
M 947 1747 
Q 947 1113 1208 752 
Q 1469 391 1925 391 
Q 2381 391 2643 752 
Q 2906 1113 2906 1747 
Q 2906 2381 2643 2742 
Q 2381 3103 1925 3103 
Q 1469 3103 1208 2742 
Q 947 2381 947 1747 
z
" transform="scale(0.015625)"/>
       <path id="DejaVuSans-63" d="M 3122 3366 
L 3122 2828 
Q 2878 2963 2633 3030 
Q 2388 3097 2138 3097 
Q 1578 3097 1268 2742 
Q 959 2388 959 1747 
Q 959 1106 1268 751 
Q 1578 397 2138 397 
Q 2388 397 2633 464 
Q 2878 531 3122 666 
L 3122 134 
Q 2881 22 2623 -34 
Q 2366 -91 2075 -91 
Q 1284 -91 818 406 
Q 353 903 353 1747 
Q 353 2603 823 3093 
Q 1294 3584 2113 3584 
Q 2378 3584 2631 3529 
Q 2884 3475 3122 3366 
z
" transform="scale(0.015625)"/>
      </defs>
      <use xlink:href="#DejaVuSans-50"/>
      <use xlink:href="#DejaVuSans-72" x="58.552734"/>
      <use xlink:href="#DejaVuSans-65" x="97.416016"/>
      <use xlink:href="#DejaVuSans-64" x="158.939453"/>
      <use xlink:href="#DejaVuSans-69" x="222.416016"/>
      <use xlink:href="#DejaVuSans-63" x="250.199219"/>
      <use xlink:href="#DejaVuSans-74" x="305.179688"/>
      <use xlink:href="#DejaVuSans-65" x="344.388672"/>
      <use xlink:href="#DejaVuSans-64" x="405.912109"/>
      <use xlink:href="#DejaVuSans-20" x="469.388672"/>
      <use xlink:href="#DejaVuSans-76" x="501.175781"/>
      <use xlink:href="#DejaVuSans-61" x="560.355469"/>
      <use xlink:href="#DejaVuSans-72" x="621.634766"/>
      <use xlink:href="#DejaVuSans-69" x="662.748047"/>
      <use xlink:href="#DejaVuSans-61" x="690.53125"/>
      <use xlink:href="#DejaVuSans-62" x="751.810547"/>
      <use xlink:href="#DejaVuSans-69" x="815.287109"/>
      <use xlink:href="#DejaVuSans-6c" x="843.070312"/>
      <use xlink:href="#DejaVuSans-69" x="870.853516"/>
      <use xlink:href="#DejaVuSans-74" x="898.636719"/>
      <use xlink:href="#DejaVuSans-79" x="937.845703"/>
      <use xlink:href="#DejaVuSans-20" x="997.025391"/>
      <use xlink:href="#DejaVuSans-6f" x="1028.8125"/>
      <use xlink:href="#DejaVuSans-66" x="1089.994141"/>
      <use xlink:href="#DejaVuSans-20" x="1125.199219"/>
      <use xlink:href="#DejaVuSans-42" x="1156.986328"/>
      <use xlink:href="#DejaVuSans-69" x="1225.589844"/>
      <use xlink:href="#DejaVuSans-6f" x="1253.373047"/>
      <use xlink:href="#DejaVuSans-6d" x="1314.554688"/>
      <use xlink:href="#DejaVuSans-61" x="1411.966797"/>
      <use xlink:href="#DejaVuSans-73" x="1473.246094"/>
      <use xlink:href="#DejaVuSans-73" x="1525.345703"/>
     </g>
    </g>
   </g>
   <g id="line2d_13">
    <path d="M 14.571524 433 
L 493.500122 -1 
" clip-path="url(#pa4074d90fa)" style="fill: none; stroke-dasharray: 5.55,2.4; stroke-dashoffset: 0; stroke: #000000; stroke-width: 1.5"/>
   </g>
   <g id="patch_3">
    <path d="M 64.8 378 
L 64.8 51.84 
" style="fill: none; stroke: #000000; stroke-width: 0.8; stroke-linejoin: miter; stroke-linecap: square"/>
   </g>
   <g id="patch_4">
    <path d="M 466.56 378 
L 466.56 51.84 
" style="fill: none; stroke: #000000; stroke-width: 0.8; stroke-linejoin: miter; stroke-linecap: square"/>
   </g>
   <g id="patch_5">
    <path d="M 64.8 378 
L 466.56 378 
" style="fill: none; stroke: #000000; stroke-width: 0.8; stroke-linejoin: miter; stroke-linecap: square"/>
   </g>
   <g id="patch_6">
    <path d="M 64.8 51.84 
L 466.56 51.84 
" style="fill: none; stroke: #000000; stroke-width: 0.8; stroke-linejoin: miter; stroke-linecap: square"/>
   </g>
   <g id="text_15">
    <!-- RMSE: 0.00 -->
    <g transform="translate(346.032 361.692) scale(0.18 -0.18)">
     <defs>
      <path id="DejaVuSans-52" d="M 2841 2188 
Q 3044 2119 3236 1894 
Q 3428 1669 3622 1275 
L 4263 0 
L 3584 0 
L 2988 1197 
Q 2756 1666 2539 1819 
Q 2322 1972 1947 1972 
L 1259 1972 
L 1259 0 
L 628 0 
L 628 4666 
L 2053 4666 
Q 2853 4666 3247 4331 
Q 3641 3997 3641 3322 
Q 3641 2881 3436 2590 
Q 3231 2300 2841 2188 
z
M 1259 4147 
L 1259 2491 
L 2053 2491 
Q 2509 2491 2742 2702 
Q 2975 2913 2975 3322 
Q 2975 3731 2742 3939 
Q 2509 4147 2053 4147 
L 1259 4147 
z
" transform="scale(0.015625)"/>
      <path id="DejaVuSans-4d" d="M 628 4666 
L 1569 4666 
L 2759 1491 
L 3956 4666 
L 4897 4666 
L 4897 0 
L 4281 0 
L 4281 4097 
L 3078 897 
L 2444 897 
L 1241 4097 
L 1241 0 
L 628 0 
L 628 4666 
z
" transform="scale(0.015625)"/>
      <path id="DejaVuSans-53" d="M 3425 4513 
L 3425 3897 
Q 3066 4069 2747 4153 
Q 2428 4238 2131 4238 
Q 1616 4238 1336 4038 
Q 1056 3838 1056 3469 
Q 1056 3159 1242 3001 
Q 1428 2844 1947 2747 
L 2328 2669 
Q 3034 2534 3370 2195 
Q 3706 1856 3706 1288 
Q 3706 609 3251 259 
Q 2797 -91 1919 -91 
Q 1588 -91 1214 -16 
Q 841 59 441 206 
L 441 856 
Q 825 641 1194 531 
Q 1563 422 1919 422 
Q 2459 422 2753 634 
Q 3047 847 3047 1241 
Q 3047 1584 2836 1778 
Q 2625 1972 2144 2069 
L 1759 2144 
Q 1053 2284 737 2584 
Q 422 2884 422 3419 
Q 422 4038 858 4394 
Q 1294 4750 2059 4750 
Q 2388 4750 2728 4690 
Q 3069 4631 3425 4513 
z
" transform="scale(0.015625)"/>
      <path id="DejaVuSans-45" d="M 628 4666 
L 3578 4666 
L 3578 4134 
L 1259 4134 
L 1259 2753 
L 3481 2753 
L 3481 2222 
L 1259 2222 
L 1259 531 
L 3634 531 
L 3634 0 
L 628 0 
L 628 4666 
z
" transform="scale(0.015625)"/>
      <path id="DejaVuSans-3a" d="M 750 794 
L 1409 794 
L 1409 0 
L 750 0 
L 750 794 
z
M 750 3309 
L 1409 3309 
L 1409 2516 
L 750 2516 
L 750 3309 
z
" transform="scale(0.015625)"/>
     </defs>
     <use xlink:href="#DejaVuSans-52"/>
     <use xlink:href="#DejaVuSans-4d" x="69.482422"/>
     <use xlink:href="#DejaVuSans-53" x="155.761719"/>
     <use xlink:href="#DejaVuSans-45" x="219.238281"/>
     <use xlink:href="#DejaVuSans-3a" x="282.421875"/>
     <use xlink:href="#DejaVuSans-20" x="316.113281"/>
     <use xlink:href="#DejaVuSans-30" x="347.900391"/>
     <use xlink:href="#DejaVuSans-2e" x="411.523438"/>
     <use xlink:href="#DejaVuSans-30" x="443.310547"/>
     <use xlink:href="#DejaVuSans-30" x="506.933594"/>
    </g>
   </g>
   <g id="text_16">
    <!-- $R^2$: -0.06 -->
    <g transform="translate(346.032 329.076) scale(0.18 -0.18)">
     <defs>
      <path id="DejaVuSans-Oblique-52" d="M 1613 4147 
L 1294 2491 
L 2106 2491 
Q 2584 2491 2879 2755 
Q 3175 3019 3175 3444 
Q 3175 3784 2976 3965 
Q 2778 4147 2406 4147 
L 1613 4147 
z
M 2772 2241 
Q 2972 2194 3105 2009 
Q 3238 1825 3413 1275 
L 3809 0 
L 3144 0 
L 2778 1197 
Q 2638 1659 2453 1815 
Q 2269 1972 1888 1972 
L 1191 1972 
L 806 0 
L 172 0 
L 1081 4666 
L 2503 4666 
Q 3150 4666 3495 4373 
Q 3841 4081 3841 3531 
Q 3841 3044 3547 2687 
Q 3253 2331 2772 2241 
z
" transform="scale(0.015625)"/>
      <path id="DejaVuSans-2d" d="M 313 2009 
L 1997 2009 
L 1997 1497 
L 313 1497 
L 313 2009 
z
" transform="scale(0.015625)"/>
      <path id="DejaVuSans-36" d="M 2113 2584 
Q 1688 2584 1439 2293 
Q 1191 2003 1191 1497 
Q 1191 994 1439 701 
Q 1688 409 2113 409 
Q 2538 409 2786 701 
Q 3034 994 3034 1497 
Q 3034 2003 2786 2293 
Q 2538 2584 2113 2584 
z
M 3366 4563 
L 3366 3988 
Q 3128 4100 2886 4159 
Q 2644 4219 2406 4219 
Q 1781 4219 1451 3797 
Q 1122 3375 1075 2522 
Q 1259 2794 1537 2939 
Q 1816 3084 2150 3084 
Q 2853 3084 3261 2657 
Q 3669 2231 3669 1497 
Q 3669 778 3244 343 
Q 2819 -91 2113 -91 
Q 1303 -91 875 529 
Q 447 1150 447 2328 
Q 447 3434 972 4092 
Q 1497 4750 2381 4750 
Q 2619 4750 2861 4703 
Q 3103 4656 3366 4563 
z
" transform="scale(0.015625)"/>
     </defs>
     <use xlink:href="#DejaVuSans-Oblique-52" transform="translate(0 0.765625)"/>
     <use xlink:href="#DejaVuSans-32" transform="translate(76.499193 39.046875) scale(0.7)"/>
     <use xlink:href="#DejaVuSans-3a" transform="translate(123.769701 0.765625)"/>
     <use xlink:href="#DejaVuSans-20" transform="translate(157.461107 0.765625)"/>
     <use xlink:href="#DejaVuSans-2d" transform="translate(189.248216 0.765625)"/>
     <use xlink:href="#DejaVuSans-30" transform="translate(225.332201 0.765625)"/>
     <use xlink:href="#DejaVuSans-2e" transform="translate(288.955247 0.765625)"/>
     <use xlink:href="#DejaVuSans-30" transform="translate(320.742357 0.765625)"/>
     <use xlink:href="#DejaVuSans-36" transform="translate(384.365404 0.765625)"/>
    </g>
   </g>
  </g>
 </g>
 <defs>
  <clipPath id="pa4074d90fa">
   <rect x="64.8" y="51.84" width="401.76" height="326.16"/>
  </clipPath>
 </defs>
</svg>
