<?xml version="1.0" encoding="utf-8" standalone="no"?>
<!DOCTYPE svg PUBLIC "-//W3C//DTD SVG 1.1//EN"
  "http://www.w3.org/Graphics/SVG/1.1/DTD/svg11.dtd">
<svg xmlns:xlink="http://www.w3.org/1999/xlink" width="518.4pt" height="432pt" viewBox="0 0 518.4 432" xmlns="http://www.w3.org/2000/svg" version="1.1">
 <metadata>
  <rdf:RDF xmlns:dc="http://purl.org/dc/elements/1.1/" xmlns:cc="http://creativecommons.org/ns#" xmlns:rdf="http://www.w3.org/1999/02/22-rdf-syntax-ns#">
   <cc:Work>
    <dc:type rdf:resource="http://purl.org/dc/dcmitype/StillImage"/>
    <dc:date>2024-11-25T06:08:15.927167</dc:date>
    <dc:format>image/svg+xml</dc:format>
    <dc:creator>
     <cc:Agent>
      <dc:title>Matplotlib v3.6.2, https://matplotlib.org/</dc:title>
     </cc:Agent>
    </dc:creator>
   </cc:Work>
  </rdf:RDF>
 </metadata>
 <defs>
  <style type="text/css">*{stroke-linejoin: round; stroke-linecap: butt}</style>
 </defs>
 <g id="figure_1">
  <g id="patch_1">
   <path d="M 0 432 
L 518.4 432 
L 518.4 0 
L 0 0 
L 0 432 
z
" style="fill: none"/>
  </g>
  <g id="axes_1">
   <g id="patch_2">
    <path d="M 64.8 378 
L 466.56 378 
L 466.56 51.84 
L 64.8 51.84 
z
" style="fill: #ffffff"/>
   </g>
   <g id="PathCollection_1">
    <defs>
     <path id="m8a49dde0a8" d="M 0 4.5 
C 1.193414 4.5 2.338109 4.025852 3.181981 3.181981 
C 4.025852 2.338109 4.5 1.193414 4.5 0 
C 4.5 -1.193414 4.025852 -2.338109 3.181981 -3.181981 
C 2.338109 -4.025852 1.193414 -4.5 0 -4.5 
C -1.193414 -4.5 -2.338109 -4.025852 -3.181981 -3.181981 
C -4.025852 -2.338109 -4.5 -1.193414 -4.5 0 
C -4.5 1.193414 -4.025852 2.338109 -3.181981 3.181981 
C -2.338109 4.025852 -1.193414 4.5 0 4.5 
z
" style="stroke: #1f77b4"/>
    </defs>
    <g clip-path="url(#p3dca2e1b1a)">
     <use xlink:href="#m8a49dde0a8" x="245.415011" y="212.026116" style="fill: #1f77b4; stroke: #1f77b4"/>
     <use xlink:href="#m8a49dde0a8" x="233.618543" y="228.729248" style="fill: #1f77b4; stroke: #1f77b4"/>
     <use xlink:href="#m8a49dde0a8" x="268.140838" y="211.633711" style="fill: #1f77b4; stroke: #1f77b4"/>
     <use xlink:href="#m8a49dde0a8" x="252.045554" y="222.192811" style="fill: #1f77b4; stroke: #1f77b4"/>
     <use xlink:href="#m8a49dde0a8" x="261.050852" y="215.472495" style="fill: #1f77b4; stroke: #1f77b4"/>
     <use xlink:href="#m8a49dde0a8" x="319.1787" y="208.947607" style="fill: #1f77b4; stroke: #1f77b4"/>
     <use xlink:href="#m8a49dde0a8" x="237.892322" y="209.057448" style="fill: #1f77b4; stroke: #1f77b4"/>
     <use xlink:href="#m8a49dde0a8" x="330.099246" y="196.728629" style="fill: #1f77b4; stroke: #1f77b4"/>
     <use xlink:href="#m8a49dde0a8" x="324.667153" y="209.453837" style="fill: #1f77b4; stroke: #1f77b4"/>
     <use xlink:href="#m8a49dde0a8" x="295.7003" y="210.241496" style="fill: #1f77b4; stroke: #1f77b4"/>
     <use xlink:href="#m8a49dde0a8" x="263.820437" y="230.51883" style="fill: #1f77b4; stroke: #1f77b4"/>
     <use xlink:href="#m8a49dde0a8" x="245.030538" y="221.638362" style="fill: #1f77b4; stroke: #1f77b4"/>
     <use xlink:href="#m8a49dde0a8" x="270.388359" y="203.026249" style="fill: #1f77b4; stroke: #1f77b4"/>
     <use xlink:href="#m8a49dde0a8" x="229.4079" y="242.145169" style="fill: #1f77b4; stroke: #1f77b4"/>
     <use xlink:href="#m8a49dde0a8" x="229.036244" y="204.282759" style="fill: #1f77b4; stroke: #1f77b4"/>
     <use xlink:href="#m8a49dde0a8" x="270.536196" y="221.905731" style="fill: #1f77b4; stroke: #1f77b4"/>
     <use xlink:href="#m8a49dde0a8" x="199.017225" y="234.980879" style="fill: #1f77b4; stroke: #1f77b4"/>
     <use xlink:href="#m8a49dde0a8" x="247.39888" y="214.327182" style="fill: #1f77b4; stroke: #1f77b4"/>
     <use xlink:href="#m8a49dde0a8" x="279.566304" y="208.646371" style="fill: #1f77b4; stroke: #1f77b4"/>
     <use xlink:href="#m8a49dde0a8" x="238.103697" y="231.604296" style="fill: #1f77b4; stroke: #1f77b4"/>
     <use xlink:href="#m8a49dde0a8" x="263.921967" y="235.693575" style="fill: #1f77b4; stroke: #1f77b4"/>
     <use xlink:href="#m8a49dde0a8" x="250.929127" y="213.856164" style="fill: #1f77b4; stroke: #1f77b4"/>
     <use xlink:href="#m8a49dde0a8" x="318.813475" y="217.997755" style="fill: #1f77b4; stroke: #1f77b4"/>
     <use xlink:href="#m8a49dde0a8" x="257.647325" y="234.79147" style="fill: #1f77b4; stroke: #1f77b4"/>
     <use xlink:href="#m8a49dde0a8" x="282.937439" y="224.770233" style="fill: #1f77b4; stroke: #1f77b4"/>
     <use xlink:href="#m8a49dde0a8" x="294.162562" y="190.877255" style="fill: #1f77b4; stroke: #1f77b4"/>
     <use xlink:href="#m8a49dde0a8" x="272.342848" y="206.743605" style="fill: #1f77b4; stroke: #1f77b4"/>
     <use xlink:href="#m8a49dde0a8" x="255.085635" y="219.794665" style="fill: #1f77b4; stroke: #1f77b4"/>
     <use xlink:href="#m8a49dde0a8" x="278.600687" y="225.349862" style="fill: #1f77b4; stroke: #1f77b4"/>
     <use xlink:href="#m8a49dde0a8" x="276.117428" y="206.12313" style="fill: #1f77b4; stroke: #1f77b4"/>
     <use xlink:href="#m8a49dde0a8" x="294.401624" y="212.126151" style="fill: #1f77b4; stroke: #1f77b4"/>
     <use xlink:href="#m8a49dde0a8" x="258.874188" y="225.3114" style="fill: #1f77b4; stroke: #1f77b4"/>
     <use xlink:href="#m8a49dde0a8" x="253.327707" y="200.201766" style="fill: #1f77b4; stroke: #1f77b4"/>
     <use xlink:href="#m8a49dde0a8" x="259.426128" y="220.269616" style="fill: #1f77b4; stroke: #1f77b4"/>
     <use xlink:href="#m8a49dde0a8" x="275.588831" y="210.647918" style="fill: #1f77b4; stroke: #1f77b4"/>
     <use xlink:href="#m8a49dde0a8" x="320.904003" y="179.455969" style="fill: #1f77b4; stroke: #1f77b4"/>
     <use xlink:href="#m8a49dde0a8" x="235.175785" y="226.114093" style="fill: #1f77b4; stroke: #1f77b4"/>
     <use xlink:href="#m8a49dde0a8" x="270.724433" y="207.880065" style="fill: #1f77b4; stroke: #1f77b4"/>
     <use xlink:href="#m8a49dde0a8" x="332.342775" y="216.504149" style="fill: #1f77b4; stroke: #1f77b4"/>
     <use xlink:href="#m8a49dde0a8" x="313.316383" y="211.00741" style="fill: #1f77b4; stroke: #1f77b4"/>
     <use xlink:href="#m8a49dde0a8" x="245.743883" y="220.373496" style="fill: #1f77b4; stroke: #1f77b4"/>
     <use xlink:href="#m8a49dde0a8" x="251.657629" y="242.321354" style="fill: #1f77b4; stroke: #1f77b4"/>
     <use xlink:href="#m8a49dde0a8" x="216.780003" y="230.368858" style="fill: #1f77b4; stroke: #1f77b4"/>
     <use xlink:href="#m8a49dde0a8" x="242.141373" y="213.969415" style="fill: #1f77b4; stroke: #1f77b4"/>
     <use xlink:href="#m8a49dde0a8" x="258.452818" y="222.654342" style="fill: #1f77b4; stroke: #1f77b4"/>
     <use xlink:href="#m8a49dde0a8" x="266.165471" y="228.348623" style="fill: #1f77b4; stroke: #1f77b4"/>
     <use xlink:href="#m8a49dde0a8" x="264.694694" y="210.417431" style="fill: #1f77b4; stroke: #1f77b4"/>
     <use xlink:href="#m8a49dde0a8" x="266.542672" y="193.229264" style="fill: #1f77b4; stroke: #1f77b4"/>
     <use xlink:href="#m8a49dde0a8" x="308.707201" y="220.355815" style="fill: #1f77b4; stroke: #1f77b4"/>
     <use xlink:href="#m8a49dde0a8" x="237.079837" y="247.39596" style="fill: #1f77b4; stroke: #1f77b4"/>
     <use xlink:href="#m8a49dde0a8" x="323.850755" y="200.791108" style="fill: #1f77b4; stroke: #1f77b4"/>
     <use xlink:href="#m8a49dde0a8" x="279.117969" y="209.820571" style="fill: #1f77b4; stroke: #1f77b4"/>
     <use xlink:href="#m8a49dde0a8" x="282.784302" y="206.834987" style="fill: #1f77b4; stroke: #1f77b4"/>
     <use xlink:href="#m8a49dde0a8" x="264.729031" y="203.028256" style="fill: #1f77b4; stroke: #1f77b4"/>
     <use xlink:href="#m8a49dde0a8" x="235.418728" y="210.485098" style="fill: #1f77b4; stroke: #1f77b4"/>
     <use xlink:href="#m8a49dde0a8" x="223.565463" y="207.032917" style="fill: #1f77b4; stroke: #1f77b4"/>
     <use xlink:href="#m8a49dde0a8" x="251.883662" y="205.823093" style="fill: #1f77b4; stroke: #1f77b4"/>
     <use xlink:href="#m8a49dde0a8" x="256.893912" y="228.081009" style="fill: #1f77b4; stroke: #1f77b4"/>
     <use xlink:href="#m8a49dde0a8" x="248.867485" y="225.578624" style="fill: #1f77b4; stroke: #1f77b4"/>
     <use xlink:href="#m8a49dde0a8" x="239.3795" y="250.384031" style="fill: #1f77b4; stroke: #1f77b4"/>
     <use xlink:href="#m8a49dde0a8" x="242.169529" y="185.560972" style="fill: #1f77b4; stroke: #1f77b4"/>
     <use xlink:href="#m8a49dde0a8" x="274.278786" y="196.528263" style="fill: #1f77b4; stroke: #1f77b4"/>
    </g>
   </g>
   <g id="matplotlib.axis_1">
    <g id="xtick_1">
     <g id="line2d_1">
      <defs>
       <path id="m4327459c20" d="M 0 0 
L 0 3.5 
" style="stroke: #000000; stroke-width: 0.8"/>
      </defs>
      <g>
       <use xlink:href="#m4327459c20" x="113.526701" y="378" style="stroke: #000000; stroke-width: 0.8"/>
      </g>
     </g>
     <g id="text_1">
      <!-- −0.25 -->
      <g transform="translate(85.94592 398.677188) scale(0.18 -0.18)">
       <defs>
        <path id="DejaVuSans-2212" d="M 678 2272 
L 4684 2272 
L 4684 1741 
L 678 1741 
L 678 2272 
z
" transform="scale(0.015625)"/>
        <path id="DejaVuSans-30" d="M 2034 4250 
Q 1547 4250 1301 3770 
Q 1056 3291 1056 2328 
Q 1056 1369 1301 889 
Q 1547 409 2034 409 
Q 2525 409 2770 889 
Q 3016 1369 3016 2328 
Q 3016 3291 2770 3770 
Q 2525 4250 2034 4250 
z
M 2034 4750 
Q 2819 4750 3233 4129 
Q 3647 3509 3647 2328 
Q 3647 1150 3233 529 
Q 2819 -91 2034 -91 
Q 1250 -91 836 529 
Q 422 1150 422 2328 
Q 422 3509 836 4129 
Q 1250 4750 2034 4750 
z
" transform="scale(0.015625)"/>
        <path id="DejaVuSans-2e" d="M 684 794 
L 1344 794 
L 1344 0 
L 684 0 
L 684 794 
z
" transform="scale(0.015625)"/>
        <path id="DejaVuSans-32" d="M 1228 531 
L 3431 531 
L 3431 0 
L 469 0 
L 469 531 
Q 828 903 1448 1529 
Q 2069 2156 2228 2338 
Q 2531 2678 2651 2914 
Q 2772 3150 2772 3378 
Q 2772 3750 2511 3984 
Q 2250 4219 1831 4219 
Q 1534 4219 1204 4116 
Q 875 4013 500 3803 
L 500 4441 
Q 881 4594 1212 4672 
Q 1544 4750 1819 4750 
Q 2544 4750 2975 4387 
Q 3406 4025 3406 3419 
Q 3406 3131 3298 2873 
Q 3191 2616 2906 2266 
Q 2828 2175 2409 1742 
Q 1991 1309 1228 531 
z
" transform="scale(0.015625)"/>
        <path id="DejaVuSans-35" d="M 691 4666 
L 3169 4666 
L 3169 4134 
L 1269 4134 
L 1269 2991 
Q 1406 3038 1543 3061 
Q 1681 3084 1819 3084 
Q 2600 3084 3056 2656 
Q 3513 2228 3513 1497 
Q 3513 744 3044 326 
Q 2575 -91 1722 -91 
Q 1428 -91 1123 -41 
Q 819 9 494 109 
L 494 744 
Q 775 591 1075 516 
Q 1375 441 1709 441 
Q 2250 441 2565 725 
Q 2881 1009 2881 1497 
Q 2881 1984 2565 2268 
Q 2250 2553 1709 2553 
Q 1456 2553 1204 2497 
Q 953 2441 691 2322 
L 691 4666 
z
" transform="scale(0.015625)"/>
       </defs>
       <use xlink:href="#DejaVuSans-2212"/>
       <use xlink:href="#DejaVuSans-30" x="83.789062"/>
       <use xlink:href="#DejaVuSans-2e" x="147.412109"/>
       <use xlink:href="#DejaVuSans-32" x="179.199219"/>
       <use xlink:href="#DejaVuSans-35" x="242.822266"/>
      </g>
     </g>
    </g>
    <g id="xtick_2">
     <g id="line2d_2">
      <g>
       <use xlink:href="#m4327459c20" x="180.635314" y="378" style="stroke: #000000; stroke-width: 0.8"/>
      </g>
     </g>
     <g id="text_2">
      <!-- 0.00 -->
      <g transform="translate(160.596252 398.677188) scale(0.18 -0.18)">
       <use xlink:href="#DejaVuSans-30"/>
       <use xlink:href="#DejaVuSans-2e" x="63.623047"/>
       <use xlink:href="#DejaVuSans-30" x="95.410156"/>
       <use xlink:href="#DejaVuSans-30" x="159.033203"/>
      </g>
     </g>
    </g>
    <g id="xtick_3">
     <g id="line2d_3">
      <g>
       <use xlink:href="#m4327459c20" x="247.743927" y="378" style="stroke: #000000; stroke-width: 0.8"/>
      </g>
     </g>
     <g id="text_3">
      <!-- 0.25 -->
      <g transform="translate(227.704864 398.677188) scale(0.18 -0.18)">
       <use xlink:href="#DejaVuSans-30"/>
       <use xlink:href="#DejaVuSans-2e" x="63.623047"/>
       <use xlink:href="#DejaVuSans-32" x="95.410156"/>
       <use xlink:href="#DejaVuSans-35" x="159.033203"/>
      </g>
     </g>
    </g>
    <g id="xtick_4">
     <g id="line2d_4">
      <g>
       <use xlink:href="#m4327459c20" x="314.852539" y="378" style="stroke: #000000; stroke-width: 0.8"/>
      </g>
     </g>
     <g id="text_4">
      <!-- 0.50 -->
      <g transform="translate(294.813477 398.677188) scale(0.18 -0.18)">
       <use xlink:href="#DejaVuSans-30"/>
       <use xlink:href="#DejaVuSans-2e" x="63.623047"/>
       <use xlink:href="#DejaVuSans-35" x="95.410156"/>
       <use xlink:href="#DejaVuSans-30" x="159.033203"/>
      </g>
     </g>
    </g>
    <g id="xtick_5">
     <g id="line2d_5">
      <g>
       <use xlink:href="#m4327459c20" x="381.961152" y="378" style="stroke: #000000; stroke-width: 0.8"/>
      </g>
     </g>
     <g id="text_5">
      <!-- 0.75 -->
      <g transform="translate(361.922089 398.677188) scale(0.18 -0.18)">
       <defs>
        <path id="DejaVuSans-37" d="M 525 4666 
L 3525 4666 
L 3525 4397 
L 1831 0 
L 1172 0 
L 2766 4134 
L 525 4134 
L 525 4666 
z
" transform="scale(0.015625)"/>
       </defs>
       <use xlink:href="#DejaVuSans-30"/>
       <use xlink:href="#DejaVuSans-2e" x="63.623047"/>
       <use xlink:href="#DejaVuSans-37" x="95.410156"/>
       <use xlink:href="#DejaVuSans-35" x="159.033203"/>
      </g>
     </g>
    </g>
    <g id="xtick_6">
     <g id="line2d_6">
      <g>
       <use xlink:href="#m4327459c20" x="449.069764" y="378" style="stroke: #000000; stroke-width: 0.8"/>
      </g>
     </g>
     <g id="text_6">
      <!-- 1.00 -->
      <g transform="translate(429.030702 398.677188) scale(0.18 -0.18)">
       <defs>
        <path id="DejaVuSans-31" d="M 794 531 
L 1825 531 
L 1825 4091 
L 703 3866 
L 703 4441 
L 1819 4666 
L 2450 4666 
L 2450 531 
L 3481 531 
L 3481 0 
L 794 0 
L 794 531 
z
" transform="scale(0.015625)"/>
       </defs>
       <use xlink:href="#DejaVuSans-31"/>
       <use xlink:href="#DejaVuSans-2e" x="63.623047"/>
       <use xlink:href="#DejaVuSans-30" x="95.410156"/>
       <use xlink:href="#DejaVuSans-30" x="159.033203"/>
      </g>
     </g>
    </g>
    <g id="text_7">
     <!-- True variability Days to Flower -->
     <g transform="translate(129.223125 420.097812) scale(0.18 -0.18)">
      <defs>
       <path id="DejaVuSans-54" d="M -19 4666 
L 3928 4666 
L 3928 4134 
L 2272 4134 
L 2272 0 
L 1638 0 
L 1638 4134 
L -19 4134 
L -19 4666 
z
" transform="scale(0.015625)"/>
       <path id="DejaVuSans-72" d="M 2631 2963 
Q 2534 3019 2420 3045 
Q 2306 3072 2169 3072 
Q 1681 3072 1420 2755 
Q 1159 2438 1159 1844 
L 1159 0 
L 581 0 
L 581 3500 
L 1159 3500 
L 1159 2956 
Q 1341 3275 1631 3429 
Q 1922 3584 2338 3584 
Q 2397 3584 2469 3576 
Q 2541 3569 2628 3553 
L 2631 2963 
z
" transform="scale(0.015625)"/>
       <path id="DejaVuSans-75" d="M 544 1381 
L 544 3500 
L 1119 3500 
L 1119 1403 
Q 1119 906 1312 657 
Q 1506 409 1894 409 
Q 2359 409 2629 706 
Q 2900 1003 2900 1516 
L 2900 3500 
L 3475 3500 
L 3475 0 
L 2900 0 
L 2900 538 
Q 2691 219 2414 64 
Q 2138 -91 1772 -91 
Q 1169 -91 856 284 
Q 544 659 544 1381 
z
M 1991 3584 
L 1991 3584 
z
" transform="scale(0.015625)"/>
       <path id="DejaVuSans-65" d="M 3597 1894 
L 3597 1613 
L 953 1613 
Q 991 1019 1311 708 
Q 1631 397 2203 397 
Q 2534 397 2845 478 
Q 3156 559 3463 722 
L 3463 178 
Q 3153 47 2828 -22 
Q 2503 -91 2169 -91 
Q 1331 -91 842 396 
Q 353 884 353 1716 
Q 353 2575 817 3079 
Q 1281 3584 2069 3584 
Q 2775 3584 3186 3129 
Q 3597 2675 3597 1894 
z
M 3022 2063 
Q 3016 2534 2758 2815 
Q 2500 3097 2075 3097 
Q 1594 3097 1305 2825 
Q 1016 2553 972 2059 
L 3022 2063 
z
" transform="scale(0.015625)"/>
       <path id="DejaVuSans-20" transform="scale(0.015625)"/>
       <path id="DejaVuSans-76" d="M 191 3500 
L 800 3500 
L 1894 563 
L 2988 3500 
L 3597 3500 
L 2284 0 
L 1503 0 
L 191 3500 
z
" transform="scale(0.015625)"/>
       <path id="DejaVuSans-61" d="M 2194 1759 
Q 1497 1759 1228 1600 
Q 959 1441 959 1056 
Q 959 750 1161 570 
Q 1363 391 1709 391 
Q 2188 391 2477 730 
Q 2766 1069 2766 1631 
L 2766 1759 
L 2194 1759 
z
M 3341 1997 
L 3341 0 
L 2766 0 
L 2766 531 
Q 2569 213 2275 61 
Q 1981 -91 1556 -91 
Q 1019 -91 701 211 
Q 384 513 384 1019 
Q 384 1609 779 1909 
Q 1175 2209 1959 2209 
L 2766 2209 
L 2766 2266 
Q 2766 2663 2505 2880 
Q 2244 3097 1772 3097 
Q 1472 3097 1187 3025 
Q 903 2953 641 2809 
L 641 3341 
Q 956 3463 1253 3523 
Q 1550 3584 1831 3584 
Q 2591 3584 2966 3190 
Q 3341 2797 3341 1997 
z
" transform="scale(0.015625)"/>
       <path id="DejaVuSans-69" d="M 603 3500 
L 1178 3500 
L 1178 0 
L 603 0 
L 603 3500 
z
M 603 4863 
L 1178 4863 
L 1178 4134 
L 603 4134 
L 603 4863 
z
" transform="scale(0.015625)"/>
       <path id="DejaVuSans-62" d="M 3116 1747 
Q 3116 2381 2855 2742 
Q 2594 3103 2138 3103 
Q 1681 3103 1420 2742 
Q 1159 2381 1159 1747 
Q 1159 1113 1420 752 
Q 1681 391 2138 391 
Q 2594 391 2855 752 
Q 3116 1113 3116 1747 
z
M 1159 2969 
Q 1341 3281 1617 3432 
Q 1894 3584 2278 3584 
Q 2916 3584 3314 3078 
Q 3713 2572 3713 1747 
Q 3713 922 3314 415 
Q 2916 -91 2278 -91 
Q 1894 -91 1617 61 
Q 1341 213 1159 525 
L 1159 0 
L 581 0 
L 581 4863 
L 1159 4863 
L 1159 2969 
z
" transform="scale(0.015625)"/>
       <path id="DejaVuSans-6c" d="M 603 4863 
L 1178 4863 
L 1178 0 
L 603 0 
L 603 4863 
z
" transform="scale(0.015625)"/>
       <path id="DejaVuSans-74" d="M 1172 4494 
L 1172 3500 
L 2356 3500 
L 2356 3053 
L 1172 3053 
L 1172 1153 
Q 1172 725 1289 603 
Q 1406 481 1766 481 
L 2356 481 
L 2356 0 
L 1766 0 
Q 1100 0 847 248 
Q 594 497 594 1153 
L 594 3053 
L 172 3053 
L 172 3500 
L 594 3500 
L 594 4494 
L 1172 4494 
z
" transform="scale(0.015625)"/>
       <path id="DejaVuSans-79" d="M 2059 -325 
Q 1816 -950 1584 -1140 
Q 1353 -1331 966 -1331 
L 506 -1331 
L 506 -850 
L 844 -850 
Q 1081 -850 1212 -737 
Q 1344 -625 1503 -206 
L 1606 56 
L 191 3500 
L 800 3500 
L 1894 763 
L 2988 3500 
L 3597 3500 
L 2059 -325 
z
" transform="scale(0.015625)"/>
       <path id="DejaVuSans-44" d="M 1259 4147 
L 1259 519 
L 2022 519 
Q 2988 519 3436 956 
Q 3884 1394 3884 2338 
Q 3884 3275 3436 3711 
Q 2988 4147 2022 4147 
L 1259 4147 
z
M 628 4666 
L 1925 4666 
Q 3281 4666 3915 4102 
Q 4550 3538 4550 2338 
Q 4550 1131 3912 565 
Q 3275 0 1925 0 
L 628 0 
L 628 4666 
z
" transform="scale(0.015625)"/>
       <path id="DejaVuSans-73" d="M 2834 3397 
L 2834 2853 
Q 2591 2978 2328 3040 
Q 2066 3103 1784 3103 
Q 1356 3103 1142 2972 
Q 928 2841 928 2578 
Q 928 2378 1081 2264 
Q 1234 2150 1697 2047 
L 1894 2003 
Q 2506 1872 2764 1633 
Q 3022 1394 3022 966 
Q 3022 478 2636 193 
Q 2250 -91 1575 -91 
Q 1294 -91 989 -36 
Q 684 19 347 128 
L 347 722 
Q 666 556 975 473 
Q 1284 391 1588 391 
Q 1994 391 2212 530 
Q 2431 669 2431 922 
Q 2431 1156 2273 1281 
Q 2116 1406 1581 1522 
L 1381 1569 
Q 847 1681 609 1914 
Q 372 2147 372 2553 
Q 372 3047 722 3315 
Q 1072 3584 1716 3584 
Q 2034 3584 2315 3537 
Q 2597 3491 2834 3397 
z
" transform="scale(0.015625)"/>
       <path id="DejaVuSans-6f" d="M 1959 3097 
Q 1497 3097 1228 2736 
Q 959 2375 959 1747 
Q 959 1119 1226 758 
Q 1494 397 1959 397 
Q 2419 397 2687 759 
Q 2956 1122 2956 1747 
Q 2956 2369 2687 2733 
Q 2419 3097 1959 3097 
z
M 1959 3584 
Q 2709 3584 3137 3096 
Q 3566 2609 3566 1747 
Q 3566 888 3137 398 
Q 2709 -91 1959 -91 
Q 1206 -91 779 398 
Q 353 888 353 1747 
Q 353 2609 779 3096 
Q 1206 3584 1959 3584 
z
" transform="scale(0.015625)"/>
       <path id="DejaVuSans-46" d="M 628 4666 
L 3309 4666 
L 3309 4134 
L 1259 4134 
L 1259 2759 
L 3109 2759 
L 3109 2228 
L 1259 2228 
L 1259 0 
L 628 0 
L 628 4666 
z
" transform="scale(0.015625)"/>
       <path id="DejaVuSans-77" d="M 269 3500 
L 844 3500 
L 1563 769 
L 2278 3500 
L 2956 3500 
L 3675 769 
L 4391 3500 
L 4966 3500 
L 4050 0 
L 3372 0 
L 2619 2869 
L 1863 0 
L 1184 0 
L 269 3500 
z
" transform="scale(0.015625)"/>
      </defs>
      <use xlink:href="#DejaVuSans-54"/>
      <use xlink:href="#DejaVuSans-72" x="46.333984"/>
      <use xlink:href="#DejaVuSans-75" x="87.447266"/>
      <use xlink:href="#DejaVuSans-65" x="150.826172"/>
      <use xlink:href="#DejaVuSans-20" x="212.349609"/>
      <use xlink:href="#DejaVuSans-76" x="244.136719"/>
      <use xlink:href="#DejaVuSans-61" x="303.316406"/>
      <use xlink:href="#DejaVuSans-72" x="364.595703"/>
      <use xlink:href="#DejaVuSans-69" x="405.708984"/>
      <use xlink:href="#DejaVuSans-61" x="433.492188"/>
      <use xlink:href="#DejaVuSans-62" x="494.771484"/>
      <use xlink:href="#DejaVuSans-69" x="558.248047"/>
      <use xlink:href="#DejaVuSans-6c" x="586.03125"/>
      <use xlink:href="#DejaVuSans-69" x="613.814453"/>
      <use xlink:href="#DejaVuSans-74" x="641.597656"/>
      <use xlink:href="#DejaVuSans-79" x="680.806641"/>
      <use xlink:href="#DejaVuSans-20" x="739.986328"/>
      <use xlink:href="#DejaVuSans-44" x="771.773438"/>
      <use xlink:href="#DejaVuSans-61" x="848.775391"/>
      <use xlink:href="#DejaVuSans-79" x="910.054688"/>
      <use xlink:href="#DejaVuSans-73" x="969.234375"/>
      <use xlink:href="#DejaVuSans-20" x="1021.333984"/>
      <use xlink:href="#DejaVuSans-74" x="1053.121094"/>
      <use xlink:href="#DejaVuSans-6f" x="1092.330078"/>
      <use xlink:href="#DejaVuSans-20" x="1153.511719"/>
      <use xlink:href="#DejaVuSans-46" x="1185.298828"/>
      <use xlink:href="#DejaVuSans-6c" x="1242.818359"/>
      <use xlink:href="#DejaVuSans-6f" x="1270.601562"/>
      <use xlink:href="#DejaVuSans-77" x="1331.783203"/>
      <use xlink:href="#DejaVuSans-65" x="1413.570312"/>
      <use xlink:href="#DejaVuSans-72" x="1475.09375"/>
     </g>
    </g>
   </g>
   <g id="matplotlib.axis_2">
    <g id="ytick_1">
     <g id="line2d_7">
      <defs>
       <path id="ma6a922b38a" d="M 0 0 
L -3.5 0 
" style="stroke: #000000; stroke-width: 0.8"/>
      </defs>
      <g>
       <use xlink:href="#ma6a922b38a" x="64.8" y="347.524331" style="stroke: #000000; stroke-width: 0.8"/>
      </g>
     </g>
     <g id="text_8">
      <!-- −0.2 -->
      <g transform="translate(14.090937 354.362925) scale(0.18 -0.18)">
       <use xlink:href="#DejaVuSans-2212"/>
       <use xlink:href="#DejaVuSans-30" x="83.789062"/>
       <use xlink:href="#DejaVuSans-2e" x="147.412109"/>
       <use xlink:href="#DejaVuSans-32" x="179.199219"/>
      </g>
     </g>
    </g>
    <g id="ytick_2">
     <g id="line2d_8">
      <g>
       <use xlink:href="#ma6a922b38a" x="64.8" y="296.477944" style="stroke: #000000; stroke-width: 0.8"/>
      </g>
     </g>
     <g id="text_9">
      <!-- 0.0 -->
      <g transform="translate(29.174375 303.316537) scale(0.18 -0.18)">
       <use xlink:href="#DejaVuSans-30"/>
       <use xlink:href="#DejaVuSans-2e" x="63.623047"/>
       <use xlink:href="#DejaVuSans-30" x="95.410156"/>
      </g>
     </g>
    </g>
    <g id="ytick_3">
     <g id="line2d_9">
      <g>
       <use xlink:href="#ma6a922b38a" x="64.8" y="245.431556" style="stroke: #000000; stroke-width: 0.8"/>
      </g>
     </g>
     <g id="text_10">
      <!-- 0.2 -->
      <g transform="translate(29.174375 252.27015) scale(0.18 -0.18)">
       <use xlink:href="#DejaVuSans-30"/>
       <use xlink:href="#DejaVuSans-2e" x="63.623047"/>
       <use xlink:href="#DejaVuSans-32" x="95.410156"/>
      </g>
     </g>
    </g>
    <g id="ytick_4">
     <g id="line2d_10">
      <g>
       <use xlink:href="#ma6a922b38a" x="64.8" y="194.385169" style="stroke: #000000; stroke-width: 0.8"/>
      </g>
     </g>
     <g id="text_11">
      <!-- 0.4 -->
      <g transform="translate(29.174375 201.223762) scale(0.18 -0.18)">
       <defs>
        <path id="DejaVuSans-34" d="M 2419 4116 
L 825 1625 
L 2419 1625 
L 2419 4116 
z
M 2253 4666 
L 3047 4666 
L 3047 1625 
L 3713 1625 
L 3713 1100 
L 3047 1100 
L 3047 0 
L 2419 0 
L 2419 1100 
L 313 1100 
L 313 1709 
L 2253 4666 
z
" transform="scale(0.015625)"/>
       </defs>
       <use xlink:href="#DejaVuSans-30"/>
       <use xlink:href="#DejaVuSans-2e" x="63.623047"/>
       <use xlink:href="#DejaVuSans-34" x="95.410156"/>
      </g>
     </g>
    </g>
    <g id="ytick_5">
     <g id="line2d_11">
      <g>
       <use xlink:href="#ma6a922b38a" x="64.8" y="143.338781" style="stroke: #000000; stroke-width: 0.8"/>
      </g>
     </g>
     <g id="text_12">
      <!-- 0.6 -->
      <g transform="translate(29.174375 150.177375) scale(0.18 -0.18)">
       <defs>
        <path id="DejaVuSans-36" d="M 2113 2584 
Q 1688 2584 1439 2293 
Q 1191 2003 1191 1497 
Q 1191 994 1439 701 
Q 1688 409 2113 409 
Q 2538 409 2786 701 
Q 3034 994 3034 1497 
Q 3034 2003 2786 2293 
Q 2538 2584 2113 2584 
z
M 3366 4563 
L 3366 3988 
Q 3128 4100 2886 4159 
Q 2644 4219 2406 4219 
Q 1781 4219 1451 3797 
Q 1122 3375 1075 2522 
Q 1259 2794 1537 2939 
Q 1816 3084 2150 3084 
Q 2853 3084 3261 2657 
Q 3669 2231 3669 1497 
Q 3669 778 3244 343 
Q 2819 -91 2113 -91 
Q 1303 -91 875 529 
Q 447 1150 447 2328 
Q 447 3434 972 4092 
Q 1497 4750 2381 4750 
Q 2619 4750 2861 4703 
Q 3103 4656 3366 4563 
z
" transform="scale(0.015625)"/>
       </defs>
       <use xlink:href="#DejaVuSans-30"/>
       <use xlink:href="#DejaVuSans-2e" x="63.623047"/>
       <use xlink:href="#DejaVuSans-36" x="95.410156"/>
      </g>
     </g>
    </g>
    <g id="ytick_6">
     <g id="line2d_12">
      <g>
       <use xlink:href="#ma6a922b38a" x="64.8" y="92.292394" style="stroke: #000000; stroke-width: 0.8"/>
      </g>
     </g>
     <g id="text_13">
      <!-- 0.8 -->
      <g transform="translate(29.174375 99.130987) scale(0.18 -0.18)">
       <defs>
        <path id="DejaVuSans-38" d="M 2034 2216 
Q 1584 2216 1326 1975 
Q 1069 1734 1069 1313 
Q 1069 891 1326 650 
Q 1584 409 2034 409 
Q 2484 409 2743 651 
Q 3003 894 3003 1313 
Q 3003 1734 2745 1975 
Q 2488 2216 2034 2216 
z
M 1403 2484 
Q 997 2584 770 2862 
Q 544 3141 544 3541 
Q 544 4100 942 4425 
Q 1341 4750 2034 4750 
Q 2731 4750 3128 4425 
Q 3525 4100 3525 3541 
Q 3525 3141 3298 2862 
Q 3072 2584 2669 2484 
Q 3125 2378 3379 2068 
Q 3634 1759 3634 1313 
Q 3634 634 3220 271 
Q 2806 -91 2034 -91 
Q 1263 -91 848 271 
Q 434 634 434 1313 
Q 434 1759 690 2068 
Q 947 2378 1403 2484 
z
M 1172 3481 
Q 1172 3119 1398 2916 
Q 1625 2713 2034 2713 
Q 2441 2713 2670 2916 
Q 2900 3119 2900 3481 
Q 2900 3844 2670 4047 
Q 2441 4250 2034 4250 
Q 1625 4250 1398 4047 
Q 1172 3844 1172 3481 
z
" transform="scale(0.015625)"/>
       </defs>
       <use xlink:href="#DejaVuSans-30"/>
       <use xlink:href="#DejaVuSans-2e" x="63.623047"/>
       <use xlink:href="#DejaVuSans-38" x="95.410156"/>
      </g>
     </g>
    </g>
    <g id="text_14">
     <!-- Predicted variability Days to Flower -->
     <g transform="translate(6.3475 374.5125) rotate(-90) scale(0.18 -0.18)">
      <defs>
       <path id="DejaVuSans-50" d="M 1259 4147 
L 1259 2394 
L 2053 2394 
Q 2494 2394 2734 2622 
Q 2975 2850 2975 3272 
Q 2975 3691 2734 3919 
Q 2494 4147 2053 4147 
L 1259 4147 
z
M 628 4666 
L 2053 4666 
Q 2838 4666 3239 4311 
Q 3641 3956 3641 3272 
Q 3641 2581 3239 2228 
Q 2838 1875 2053 1875 
L 1259 1875 
L 1259 0 
L 628 0 
L 628 4666 
z
" transform="scale(0.015625)"/>
       <path id="DejaVuSans-64" d="M 2906 2969 
L 2906 4863 
L 3481 4863 
L 3481 0 
L 2906 0 
L 2906 525 
Q 2725 213 2448 61 
Q 2172 -91 1784 -91 
Q 1150 -91 751 415 
Q 353 922 353 1747 
Q 353 2572 751 3078 
Q 1150 3584 1784 3584 
Q 2172 3584 2448 3432 
Q 2725 3281 2906 2969 
z
M 947 1747 
Q 947 1113 1208 752 
Q 1469 391 1925 391 
Q 2381 391 2643 752 
Q 2906 1113 2906 1747 
Q 2906 2381 2643 2742 
Q 2381 3103 1925 3103 
Q 1469 3103 1208 2742 
Q 947 2381 947 1747 
z
" transform="scale(0.015625)"/>
       <path id="DejaVuSans-63" d="M 3122 3366 
L 3122 2828 
Q 2878 2963 2633 3030 
Q 2388 3097 2138 3097 
Q 1578 3097 1268 2742 
Q 959 2388 959 1747 
Q 959 1106 1268 751 
Q 1578 397 2138 397 
Q 2388 397 2633 464 
Q 2878 531 3122 666 
L 3122 134 
Q 2881 22 2623 -34 
Q 2366 -91 2075 -91 
Q 1284 -91 818 406 
Q 353 903 353 1747 
Q 353 2603 823 3093 
Q 1294 3584 2113 3584 
Q 2378 3584 2631 3529 
Q 2884 3475 3122 3366 
z
" transform="scale(0.015625)"/>
      </defs>
      <use xlink:href="#DejaVuSans-50"/>
      <use xlink:href="#DejaVuSans-72" x="58.552734"/>
      <use xlink:href="#DejaVuSans-65" x="97.416016"/>
      <use xlink:href="#DejaVuSans-64" x="158.939453"/>
      <use xlink:href="#DejaVuSans-69" x="222.416016"/>
      <use xlink:href="#DejaVuSans-63" x="250.199219"/>
      <use xlink:href="#DejaVuSans-74" x="305.179688"/>
      <use xlink:href="#DejaVuSans-65" x="344.388672"/>
      <use xlink:href="#DejaVuSans-64" x="405.912109"/>
      <use xlink:href="#DejaVuSans-20" x="469.388672"/>
      <use xlink:href="#DejaVuSans-76" x="501.175781"/>
      <use xlink:href="#DejaVuSans-61" x="560.355469"/>
      <use xlink:href="#DejaVuSans-72" x="621.634766"/>
      <use xlink:href="#DejaVuSans-69" x="662.748047"/>
      <use xlink:href="#DejaVuSans-61" x="690.53125"/>
      <use xlink:href="#DejaVuSans-62" x="751.810547"/>
      <use xlink:href="#DejaVuSans-69" x="815.287109"/>
      <use xlink:href="#DejaVuSans-6c" x="843.070312"/>
      <use xlink:href="#DejaVuSans-69" x="870.853516"/>
      <use xlink:href="#DejaVuSans-74" x="898.636719"/>
      <use xlink:href="#DejaVuSans-79" x="937.845703"/>
      <use xlink:href="#DejaVuSans-20" x="997.025391"/>
      <use xlink:href="#DejaVuSans-44" x="1028.8125"/>
      <use xlink:href="#DejaVuSans-61" x="1105.814453"/>
      <use xlink:href="#DejaVuSans-79" x="1167.09375"/>
      <use xlink:href="#DejaVuSans-73" x="1226.273438"/>
      <use xlink:href="#DejaVuSans-20" x="1278.373047"/>
      <use xlink:href="#DejaVuSans-74" x="1310.160156"/>
      <use xlink:href="#DejaVuSans-6f" x="1349.369141"/>
      <use xlink:href="#DejaVuSans-20" x="1410.550781"/>
      <use xlink:href="#DejaVuSans-46" x="1442.337891"/>
      <use xlink:href="#DejaVuSans-6c" x="1499.857422"/>
      <use xlink:href="#DejaVuSans-6f" x="1527.640625"/>
      <use xlink:href="#DejaVuSans-77" x="1588.822266"/>
      <use xlink:href="#DejaVuSans-65" x="1670.609375"/>
      <use xlink:href="#DejaVuSans-72" x="1732.132812"/>
     </g>
    </g>
   </g>
   <g id="line2d_13">
    <path d="M 59.779383 411.389772 
L 86.636257 385.85381 
L 113.49313 360.317848 
L 140.350004 334.781886 
L 167.206877 309.245925 
L 194.063751 283.709963 
L 220.920624 258.174001 
L 247.777498 232.638039 
L 274.634371 207.102078 
L 301.491245 181.566116 
L 328.348118 156.030154 
L 355.204992 130.494192 
L 382.061865 104.958231 
L 408.918739 79.422269 
L 435.775612 53.886307 
L 462.632486 28.350345 
L 489.489359 2.814384 
" clip-path="url(#p3dca2e1b1a)" style="fill: none; stroke-dasharray: 5.55,2.4; stroke-dashoffset: 0; stroke: #000000; stroke-width: 1.5"/>
   </g>
   <g id="patch_3">
    <path d="M 64.8 378 
L 64.8 51.84 
" style="fill: none; stroke: #000000; stroke-width: 0.8; stroke-linejoin: miter; stroke-linecap: square"/>
   </g>
   <g id="patch_4">
    <path d="M 466.56 378 
L 466.56 51.84 
" style="fill: none; stroke: #000000; stroke-width: 0.8; stroke-linejoin: miter; stroke-linecap: square"/>
   </g>
   <g id="patch_5">
    <path d="M 64.8 378 
L 466.56 378 
" style="fill: none; stroke: #000000; stroke-width: 0.8; stroke-linejoin: miter; stroke-linecap: square"/>
   </g>
   <g id="patch_6">
    <path d="M 64.8 51.84 
L 466.56 51.84 
" style="fill: none; stroke: #000000; stroke-width: 0.8; stroke-linejoin: miter; stroke-linecap: square"/>
   </g>
   <g id="text_15">
    <!-- RMSE: 0.10 -->
    <g transform="translate(346.032 361.692) scale(0.18 -0.18)">
     <defs>
      <path id="DejaVuSans-52" d="M 2841 2188 
Q 3044 2119 3236 1894 
Q 3428 1669 3622 1275 
L 4263 0 
L 3584 0 
L 2988 1197 
Q 2756 1666 2539 1819 
Q 2322 1972 1947 1972 
L 1259 1972 
L 1259 0 
L 628 0 
L 628 4666 
L 2053 4666 
Q 2853 4666 3247 4331 
Q 3641 3997 3641 3322 
Q 3641 2881 3436 2590 
Q 3231 2300 2841 2188 
z
M 1259 4147 
L 1259 2491 
L 2053 2491 
Q 2509 2491 2742 2702 
Q 2975 2913 2975 3322 
Q 2975 3731 2742 3939 
Q 2509 4147 2053 4147 
L 1259 4147 
z
" transform="scale(0.015625)"/>
      <path id="DejaVuSans-4d" d="M 628 4666 
L 1569 4666 
L 2759 1491 
L 3956 4666 
L 4897 4666 
L 4897 0 
L 4281 0 
L 4281 4097 
L 3078 897 
L 2444 897 
L 1241 4097 
L 1241 0 
L 628 0 
L 628 4666 
z
" transform="scale(0.015625)"/>
      <path id="DejaVuSans-53" d="M 3425 4513 
L 3425 3897 
Q 3066 4069 2747 4153 
Q 2428 4238 2131 4238 
Q 1616 4238 1336 4038 
Q 1056 3838 1056 3469 
Q 1056 3159 1242 3001 
Q 1428 2844 1947 2747 
L 2328 2669 
Q 3034 2534 3370 2195 
Q 3706 1856 3706 1288 
Q 3706 609 3251 259 
Q 2797 -91 1919 -91 
Q 1588 -91 1214 -16 
Q 841 59 441 206 
L 441 856 
Q 825 641 1194 531 
Q 1563 422 1919 422 
Q 2459 422 2753 634 
Q 3047 847 3047 1241 
Q 3047 1584 2836 1778 
Q 2625 1972 2144 2069 
L 1759 2144 
Q 1053 2284 737 2584 
Q 422 2884 422 3419 
Q 422 4038 858 4394 
Q 1294 4750 2059 4750 
Q 2388 4750 2728 4690 
Q 3069 4631 3425 4513 
z
" transform="scale(0.015625)"/>
      <path id="DejaVuSans-45" d="M 628 4666 
L 3578 4666 
L 3578 4134 
L 1259 4134 
L 1259 2753 
L 3481 2753 
L 3481 2222 
L 1259 2222 
L 1259 531 
L 3634 531 
L 3634 0 
L 628 0 
L 628 4666 
z
" transform="scale(0.015625)"/>
      <path id="DejaVuSans-3a" d="M 750 794 
L 1409 794 
L 1409 0 
L 750 0 
L 750 794 
z
M 750 3309 
L 1409 3309 
L 1409 2516 
L 750 2516 
L 750 3309 
z
" transform="scale(0.015625)"/>
     </defs>
     <use xlink:href="#DejaVuSans-52"/>
     <use xlink:href="#DejaVuSans-4d" x="69.482422"/>
     <use xlink:href="#DejaVuSans-53" x="155.761719"/>
     <use xlink:href="#DejaVuSans-45" x="219.238281"/>
     <use xlink:href="#DejaVuSans-3a" x="282.421875"/>
     <use xlink:href="#DejaVuSans-20" x="316.113281"/>
     <use xlink:href="#DejaVuSans-30" x="347.900391"/>
     <use xlink:href="#DejaVuSans-2e" x="411.523438"/>
     <use xlink:href="#DejaVuSans-31" x="443.310547"/>
     <use xlink:href="#DejaVuSans-30" x="506.933594"/>
    </g>
   </g>
   <g id="text_16">
    <!-- $R^2$: 0.18 -->
    <g transform="translate(346.032 329.076) scale(0.18 -0.18)">
     <defs>
      <path id="DejaVuSans-Oblique-52" d="M 1613 4147 
L 1294 2491 
L 2106 2491 
Q 2584 2491 2879 2755 
Q 3175 3019 3175 3444 
Q 3175 3784 2976 3965 
Q 2778 4147 2406 4147 
L 1613 4147 
z
M 2772 2241 
Q 2972 2194 3105 2009 
Q 3238 1825 3413 1275 
L 3809 0 
L 3144 0 
L 2778 1197 
Q 2638 1659 2453 1815 
Q 2269 1972 1888 1972 
L 1191 1972 
L 806 0 
L 172 0 
L 1081 4666 
L 2503 4666 
Q 3150 4666 3495 4373 
Q 3841 4081 3841 3531 
Q 3841 3044 3547 2687 
Q 3253 2331 2772 2241 
z
" transform="scale(0.015625)"/>
     </defs>
     <use xlink:href="#DejaVuSans-Oblique-52" transform="translate(0 0.765625)"/>
     <use xlink:href="#DejaVuSans-32" transform="translate(76.499193 39.046875) scale(0.7)"/>
     <use xlink:href="#DejaVuSans-3a" transform="translate(123.769701 0.765625)"/>
     <use xlink:href="#DejaVuSans-20" transform="translate(157.461107 0.765625)"/>
     <use xlink:href="#DejaVuSans-30" transform="translate(189.248216 0.765625)"/>
     <use xlink:href="#DejaVuSans-2e" transform="translate(252.871263 0.765625)"/>
     <use xlink:href="#DejaVuSans-31" transform="translate(284.658372 0.765625)"/>
     <use xlink:href="#DejaVuSans-38" transform="translate(348.281419 0.765625)"/>
    </g>
   </g>
  </g>
 </g>
 <defs>
  <clipPath id="p3dca2e1b1a">
   <rect x="64.8" y="51.84" width="401.76" height="326.16"/>
  </clipPath>
 </defs>
</svg>
